<svg xmlns="http://www.w3.org/2000/svg" viewBox="0 0 1000 1000"><path transform="translate(0 880) scale(1 -1)" d="M876 558Q876 551 871.5 538.5Q867 526 859.5 516.5Q852 507 842 507Q835 507 826.5 524.0Q818 541 810.0 560.5Q802 580 798 587Q698 577 600.5 566.0Q503 555 405 527L363 597L424 600Q480 648 528.0 712.0Q576 776 600 847L669 784L637 771Q597 720 552.5 678.0Q508 636 456 597L789 605Q770 634 748.5 662.5Q727 691 704 716L711 728Q729 716 757.0 697.0Q785 678 812.0 655.0Q839 632 857.5 607.0Q876 582 876 558ZM397 170 400 159Q381 150 347.5 134.5Q314 119 274.5 99.5Q235 80 196.5 59.0Q158 38 129.0 18.5Q100 -1 89 -16L46 50Q82 61 117.0 73.5Q152 86 187 97V435H109Q109 435 97.5 432.5Q86 430 74.0 428.0Q62 426 60 425L42 456H187V752L260 723Q260 722 254.5 706.5Q249 691 244.0 677.0Q239 663 239 663V456H292L338 502L397 435H239V117ZM637 183H622Q600 86 548.5 20.0Q497 -46 422.0 -86.5Q347 -127 253 -148L249 -136Q368 -97 450.0 -19.0Q532 59 563 183H399Q384 183 363.5 177.5Q343 172 327 169L303 205H568Q572 248 575.0 290.0Q578 332 580 375H473Q444 339 412.5 305.5Q381 272 348 239L336 247Q364 280 392.5 328.0Q421 376 444.0 427.5Q467 479 477 520L554 472L522 451L486 395H738L795 442L868 375H637Q635 332 632.0 290.0Q629 248 625 205H820L873 254L945 183H655Q704 89 777.0 22.0Q850 -45 958 -62V-70Q945 -70 928.5 -80.5Q912 -91 898.5 -105.5Q885 -120 880 -132Q786 -79 726.5 1.0Q667 81 637 183Z"/></svg>
