<svg xmlns="http://www.w3.org/2000/svg" viewBox="0 0 1000 1000"><path transform="translate(0 880) scale(1 -1)" d="M687 850Q716 832 738.0 813.5Q760 795 777 780L690 748Q601 699 506.0 646.0Q411 593 310.5 544.0Q210 495 104 456L97 459Q223 522 335.0 593.0Q447 664 537.0 732.0Q627 800 687 850ZM809 649 909 604 885 574Q866 538 846.0 489.5Q826 441 803.0 387.5Q780 334 754.5 281.5Q729 229 700 186L689 189Q712 258 727.5 308.0Q743 358 754.0 397.5Q765 437 773.0 474.0Q781 511 789.5 552.5Q798 594 809 649ZM442 540Q474 532 511.5 519.0Q549 506 582.0 486.0Q615 466 636.0 437.0Q657 408 657 368L656 361Q655 351 642.5 337.5Q630 324 620 324Q618 324 614 326Q606 332 594.0 354.5Q582 377 562.5 409.0Q543 441 514.0 475.5Q485 510 442 540ZM200 367Q298 353 349.0 331.0Q400 309 419.5 281.5Q439 254 441 222Q441 212 430.0 197.5Q419 183 408 183Q404 183 402 184Q394 188 379.5 208.0Q365 228 341.0 256.5Q317 285 282.5 314.5Q248 344 200 367Z"/></svg>
