<svg xmlns="http://www.w3.org/2000/svg" viewBox="0 0 1000 1000"><path transform="translate(0 880) scale(1 -1)" d="M305 303H190Q189 254 181.0 190.0Q173 126 156.0 59.5Q139 -7 113.0 -63.5Q87 -120 49 -155L41 -148Q74 -87 93.5 -15.5Q113 56 122.5 132.0Q132 208 135.0 283.5Q138 359 138 427Q138 522 136.0 618.0Q134 714 133 809L209 767Q209 766 204.5 751.0Q200 736 195.5 722.0Q191 708 191 708V536H301V852L379 818L354 751V536H373L419 581L474 512H191V324H286L328 378L397 318L361 279V-95Q361 -101 350.5 -106.0Q340 -111 328.0 -113.5Q316 -116 310 -116L307 -115H305ZM740 119V-122Q733 -131 721.5 -142.5Q710 -154 697 -154H695L689 -152H687V119H512Q512 119 499.0 116.0Q486 113 473.0 110.5Q460 108 458 107L435 142H477Q523 183 570.0 236.0Q617 289 644 345H566V297Q557 285 541.5 280.0Q526 275 512 275L513 737L575 696H610Q623 735 635.0 773.5Q647 812 654 852L716 799Q691 774 669.0 750.0Q647 726 627 696H829L868 742L930 688L894 652V323Q873 297 842 293V345H697Q660 284 611.5 228.0Q563 172 495 142H687V319L764 288Q759 273 750.5 254.0Q742 235 740 220Q738 204 739.0 181.5Q740 159 740 142H837L887 190L959 119ZM678 674H566V538H678Q680 548 680.0 557.5Q680 567 680 577Q680 601 679.5 625.5Q679 650 678 674ZM744 674 733 647 731 538H842V674ZM678 514H566V367H650Q666 396 671.0 438.0Q676 480 678 514ZM842 514H731Q731 479 724.0 439.0Q717 399 703 367H842Z"/></svg>
